<svg version="1.1" width="100" height="100" xmlns="http://www.w3.org/2000/svg">
  <rect width="100%" height="100%" fill="none" />
  <g fill="#ccc">
    <rect x="20%" width="10%"  height="100%" />
    <rect x="45%" width="10%"  height="100%" />
    <rect x="70%" width="10%"  height="100%" />
    <rect y="20%" width="100%" height="10%"  />
    <rect y="45%" width="100%" height="10%"  />
    <rect y="70%" width="100%" height="10%"  />
  </g>
  <g fill="#666">
    <rect x="20%" y="10%" width="10%" height="10%" />
    <rect x="20%" y="30%" width="10%" height="10%" />
    <rect x="20%" y="60%" width="10%" height="10%" />
    <rect x="20%" y="80%" width="10%" height="10%" />
    <rect x="70%" y="10%" width="10%" height="10%" />
    <rect x="70%" y="30%" width="10%" height="10%" />
    <rect x="70%" y="60%" width="10%" height="10%" />
    <rect x="70%" y="80%" width="10%" height="10%" />
    <rect x="35%" y="20%" width="10%" height="10%" />
    <rect x="55%" y="20%" width="10%" height="10%" />
    <rect x="35%" y="70%" width="10%" height="10%" />
    <rect x="55%" y="70%" width="10%" height="10%" />
    <rect x="45%" y="35%" width="10%" height="10%" />
    <rect x="45%" y="55%" width="10%" height="10%" />
    <rect x="10%" y="45%" width="10%" height="10%" />
    <rect x="30%" y="45%" width="10%" height="10%" />
    <rect x="60%" y="45%" width="10%" height="10%" />
    <rect x="80%" y="45%" width="10%" height="10%" />
  </g>
</svg>
